<svg id="Layer_1" data-name="Layer 1" xmlns="http://www.w3.org/2000/svg" viewBox="0 0 500 153"><title>logo</title><path d="M145.3,61.2c-2.3-3.9-4.5-7.5-6.7-11-.9-4-1.9-8.1-3.1-12.4-2.9-10.8-8.1-17.1-19.8-21a131.42,131.42,0,0,0-14.6-3.9c-3.3-2.1-6.9-4.3-10.8-6.5C80.5.7,72.5,0,61.5,5.5a135.12,135.12,0,0,0-12.9,7.4,128.21,128.21,0,0,0-14.4,3.9c-11.7,3.9-16.8,10.1-19.7,21-1.1,4.3-2.1,8.3-3,12.2-2.5,4.1-5,8.5-7.3,13C-1.3,74-.6,82,5.1,91.8c2.3,3.9,4.5,7.5,6.7,11,.9,4,1.9,8.1,3.1,12.4,2.9,10.8,8.1,17.1,19.8,21a131.42,131.42,0,0,0,14.6,3.9c3.3,2.1,6.9,4.3,10.8,6.5,9.8,5.7,17.8,6.4,28.8.9a135.12,135.12,0,0,0,12.9-7.4,128.21,128.21,0,0,0,14.4-3.9c11.7-3.9,16.8-10.1,19.8-21,1.1-4.3,2.1-8.3,3-12.2a130.4,130.4,0,0,0,7.5-13.1C151.7,78.9,150.9,70.9,145.3,61.2ZM75.1,140.6a64.2,64.2,0,1,1,64.2-64.2A64.14,64.14,0,0,1,75.1,140.6Z" style="fill:#fff"/><rect x="58.8" y="35.4" width="1.5" height="81.3" style="fill:#fff"/><rect x="74.5" y="32.4" width="1.5" height="88" style="fill:#fff"/><rect x="90.3" y="35.4" width="1.5" height="81.3" style="fill:#fff"/><rect x="106.1" y="40.9" width="1.5" height="70.3" style="fill:#fff"/><rect x="43" y="40.9" width="1.5" height="70.3" style="fill:#fff"/><rect x="40.3" y="44.2" width="70.3" height="1.5" style="fill:#fff"/><rect x="34.8" y="60" width="81.6" height="1.5" style="fill:#fff"/><rect x="30.3" y="75.7" width="89.8" height="1.5" style="fill:#fff"/><rect x="34.8" y="91.5" width="81.6" height="1.5" style="fill:#fff"/><rect x="40.3" y="107.3" width="70.3" height="1.5" style="fill:#fff"/><rect x="72" y="40.4" width="6.6" height="71.7" style="fill:#fff"/><rect x="38.8" y="72.9" width="72.5" height="6.6" style="fill:#fff"/><path d="M38.7,62.8v6.6s51,4.2,63.2-25.3L96,41.2S88.9,66.4,38.7,62.8" style="fill:#fff"/><circle cx="75.2" cy="17" r="1.5" style="fill:#fff"/><circle cx="69.3" cy="17.2" r="1.5" style="fill:#fff"/><circle cx="63.4" cy="18.2" r="1.5" style="fill:#fff"/><circle cx="57.6" cy="19.6" r="1.5" style="fill:#fff"/><circle cx="52.1" cy="21.6" r="1.5" style="fill:#fff"/><circle cx="46.7" cy="24.2" r="1.5" style="fill:#fff"/><circle cx="41.7" cy="27.3" r="1.5" style="fill:#fff"/><circle cx="36.9" cy="30.9" r="1.5" style="fill:#fff"/><circle cx="32.6" cy="34.9" r="1.5" style="fill:#fff"/><circle cx="28.7" cy="39.3" r="1.5" style="fill:#fff"/><circle cx="25.2" cy="44.2" r="1.5" style="fill:#fff"/><circle cx="22.2" cy="49.3" r="1.5" style="fill:#fff"/><circle cx="19.8" cy="54.7" r="1.5" style="fill:#fff"/><circle cx="17.9" cy="60.3" r="1.5" style="fill:#fff"/><circle cx="16.6" cy="66.1" r="1.5" style="fill:#fff"/><circle cx="15.8" cy="72" r="1.5" style="fill:#fff"/><circle cx="15.7" cy="77.9" r="1.5" style="fill:#fff"/><circle cx="16.1" cy="83.8" r="1.5" style="fill:#fff"/><circle cx="17.2" cy="89.7" r="1.5" style="fill:#fff"/><circle cx="18.8" cy="95.4" r="1.5" style="fill:#fff"/><circle cx="20.9" cy="101" r="1.5" style="fill:#fff"/><circle cx="23.6" cy="106.2" r="1.5" style="fill:#fff"/><circle cx="26.8" cy="111.2" r="1.5" style="fill:#fff"/><circle cx="30.6" cy="115.8" r="1.5" style="fill:#fff"/><circle cx="34.7" cy="120.1" r="1.5" style="fill:#fff"/><circle cx="39.2" cy="123.9" r="1.5" style="fill:#fff"/><circle cx="44.1" cy="127.2" r="1.5" style="fill:#fff"/><circle cx="49.3" cy="130.1" r="1.5" style="fill:#fff"/><circle cx="54.8" cy="132.4" r="1.5" style="fill:#fff"/><circle cx="60.5" cy="134.2" r="1.5" style="fill:#fff"/><circle cx="66.2" cy="135.3" r="1.5" style="fill:#fff"/><circle cx="72.1" cy="135.9" r="1.5" style="fill:#fff"/><circle cx="78.1" cy="135.9" r="1.5" style="fill:#fff"/><circle cx="84" cy="135.4" r="1.5" style="fill:#fff"/><circle cx="89.8" cy="134.2" r="1.5" style="fill:#fff"/><circle cx="95.5" cy="132.4" r="1.5" style="fill:#fff"/><circle cx="100.9" cy="130.1" r="1.5" style="fill:#fff"/><circle cx="106.2" cy="127.3" r="1.5" style="fill:#fff"/><circle cx="111.1" cy="123.9" r="1.5" style="fill:#fff"/><circle cx="115.6" cy="120.1" r="1.5" style="fill:#fff"/><circle cx="119.7" cy="115.9" r="1.5" style="fill:#fff"/><circle cx="123.5" cy="111.3" r="1.5" style="fill:#fff"/><circle cx="126.7" cy="106.3" r="1.5" style="fill:#fff"/><circle cx="129.4" cy="101" r="1.5" style="fill:#fff"/><circle cx="131.6" cy="95.5" r="1.5" style="fill:#fff"/><circle cx="133.2" cy="89.8" r="1.5" style="fill:#fff"/><circle cx="134.2" cy="83.9" r="1.5" style="fill:#fff"/><circle cx="134.6" cy="78" r="1.5" style="fill:#fff"/><circle cx="134.5" cy="72.1" r="1.5" style="fill:#fff"/><circle cx="133.8" cy="66.2" r="1.5" style="fill:#fff"/><circle cx="132.4" cy="60.4" r="1.5" style="fill:#fff"/><circle cx="130.6" cy="54.8" r="1.5" style="fill:#fff"/><circle cx="128.2" cy="49.4" r="1.5" style="fill:#fff"/><circle cx="125.2" cy="44.3" r="1.5" style="fill:#fff"/><circle cx="121.7" cy="39.4" r="1.5" style="fill:#fff"/><circle cx="117.8" cy="35" r="1.5" style="fill:#fff"/><circle cx="113.5" cy="30.9" r="1.5" style="fill:#fff"/><circle cx="108.8" cy="27.3" r="1.5" style="fill:#fff"/><circle cx="103.7" cy="24.2" r="1.5" style="fill:#fff"/><circle cx="98.3" cy="21.7" r="1.5" style="fill:#fff"/><circle cx="92.8" cy="19.6" r="1.5" style="fill:#fff"/><circle cx="87" cy="18.2" r="1.5" style="fill:#fff"/><circle cx="81.2" cy="17.3" r="1.5" style="fill:#fff"/><path d="M73.8,25H70.7l3.1-2,.1.1-2.7,1.8h2.7a2.54,2.54,0,0,0,1.7-.7,2.31,2.31,0,0,1,1.9-1.1v.1a2.51,2.51,0,0,0-1.9,1A2.24,2.24,0,0,1,73.8,25Z" style="fill:#fff"/><path d="M77.4,23.2l-3.7-.1h0l-3-2.1h.2s2.5.1,2.9.1a2.65,2.65,0,0,1,1.9.9h0c.1.1.1.1.1.2.3.4.5.7,1.7.9Zm-3.7-.1,3.1.1a2.28,2.28,0,0,1-1.2-.8c-.1-.1-.1-.1-.1-.2h0a2.14,2.14,0,0,0-1.7-.8c-.4,0-2.1-.1-2.7-.1Z" style="fill:#fff"/><path d="M65.6,25.8l.1-.1,2.7-2.1.1.1-2.5,2,2.7-.3a2.64,2.64,0,0,0,1.7-.9,2.35,2.35,0,0,1,1.8-1.3v.1a1.94,1.94,0,0,0-1.7,1.2c-.5.9-1.7.9-1.7,1Z" style="fill:#fff"/><path d="M68.4,23.6h0l-3.3-1.8h.2s2.5-.1,2.9-.2a2.17,2.17,0,0,1,1.9.7h0c.1.1.1.1.1.2a2,2,0,0,0,1.8.7v.1Zm-2.8-1.7,2.9,1.6,3.1-.3a2,2,0,0,1-1.3-.7c-.1-.1-.1-.1-.1-.2a2.41,2.41,0,0,0-1.7-.7h-.2A20.22,20.22,0,0,1,65.6,21.9Z" style="fill:#fff"/><path d="M60.6,27l2.6-2.5.1.1L61,26.9l2.7-.5a2.5,2.5,0,0,0,1.6-1.1A2.11,2.11,0,0,1,67,23.9V24a2.11,2.11,0,0,0-1.6,1.4,2.42,2.42,0,0,1-1.7,1.1Z" style="fill:#fff"/><path d="M63.2,24.5h0L59.8,23H60l2.9-.5a2.64,2.64,0,0,1,2,.5h0c.1.1.1.1.2.1a1.77,1.77,0,0,0,1.5.5h.3v.1Zm-3-1.4,3,1.3,3-.5a2.3,2.3,0,0,1-1.3-.5c-.1-.1-.1-.1-.2-.1h0a2.39,2.39,0,0,0-1.9-.5Z" style="fill:#fff"/><path d="M55.8,28.6l2.3-2.8.1.1-2.1,2.5,2.6-.8a2.51,2.51,0,0,0,1.5-1.2,2.36,2.36,0,0,1,1.5-1.6l.1.1a2.44,2.44,0,0,0-1.5,1.5,2.43,2.43,0,0,1-1.5,1.3Z" style="fill:#fff"/><path d="M58.1,26h0l-3.5-1.1.2-.1,2.8-.7a2.3,2.3,0,0,1,2,.3h0c.1.1.1.1.2.1.4.3.7.5,1.9.3v.1ZM55,24.9l3.1,1L61,25h-.1a2.23,2.23,0,0,1-1.3-.4c-.1-.1-.1-.1-.2-.1h0a2.09,2.09,0,0,0-1.9-.3C57.2,24.3,55.6,24.7,55,24.9Z" style="fill:#fff"/><path d="M51.1,30.8l.1-.1,1.9-2.9.1.1-1.9,2.7,2.5-1.1a2.14,2.14,0,0,0,1.3-1.4,2.28,2.28,0,0,1,1.4-1.7l.1.1a2.36,2.36,0,0,0-1.3,1.7,2.85,2.85,0,0,1-1.4,1.5Z" style="fill:#fff"/><path d="M53.2,28h0l-3.6-.8.2-.1s2.3-.9,2.7-1a2,2,0,0,1,2,.1h0c.1.1.1.1.2.1.4.3.7.5,1.9.1l.1.1ZM50,27.2l3.2.7,2.9-1.1h-.4a1.49,1.49,0,0,1-1-.3c-.1-.1-.1-.1-.2-.1h0a2.48,2.48,0,0,0-1.9-.1A16.14,16.14,0,0,0,50,27.2Z" style="fill:#fff"/><path d="M46.7,33.5l1.7-3.2.1.1L47,33.2l2.4-1.3a2.13,2.13,0,0,0,1.2-1.5,2.42,2.42,0,0,1,1.2-1.9l.1.1a2.13,2.13,0,0,0-1.1,1.8c-.1,1.1-1.2,1.5-1.3,1.6Z" style="fill:#fff"/><path d="M48.5,30.4h0L44.9,30l.2-.1,2.6-1.3a2.36,2.36,0,0,1,2-.1h0c.1,0,.1.1.2.1.4.2.8.4,1.9-.1l.1.1Zm-3.3-.5,3.3.3,2.7-1.4a2.38,2.38,0,0,1-1.5-.1c-.1,0-.1-.1-.2-.1h0a2.13,2.13,0,0,0-1.9.1C47.3,28.9,45.7,29.6,45.2,29.9Z" style="fill:#fff"/><path d="M42.6,36.5l.1-.2L44,33.1l.1.1-1.3,3,2.3-1.5a2.41,2.41,0,0,0,1.1-1.6,2.16,2.16,0,0,1,1-1.9l.1.1a2.15,2.15,0,0,0-.9,1.9,2.44,2.44,0,0,1-1.1,1.7Z" style="fill:#fff"/><path d="M44.1,33.2H40.4l.1-.1s2.1-1.3,2.5-1.5a2.41,2.41,0,0,1,2-.3h0c.1,0,.1.1.2.1a2,2,0,0,0,1.9-.3l.1.1Zm-3.4-.1H44l2.6-1.7a1.91,1.91,0,0,1-1.5,0c-.1,0-.1-.1-.2-.1h0a2.19,2.19,0,0,0-1.9.3A23,23,0,0,1,40.7,33.1Z" style="fill:#fff"/><path d="M38.8,39.9l.1-.2,1-3.3.1.1-.9,3.1,2.1-1.7a2.43,2.43,0,0,0,.9-1.7,2.46,2.46,0,0,1,.8-2.1l.1.1a2.11,2.11,0,0,0-.7,2c.1,1.1-.9,1.7-.9,1.8Z" style="fill:#fff"/><path d="M36.2,36.9l.1-.1,2.3-1.7a2,2,0,0,1,1.9-.5h0c.1,0,.1.1.2.1a2.15,2.15,0,0,0,1.9-.4l.1.1-2.9,2.3h0Zm4-2.4a3,3,0,0,0-1.5.5l-2.1,1.7,3.3-.3,2.4-1.9a1.62,1.62,0,0,1-1.5.1c-.1,0-.1-.1-.2-.1h-.4Z" style="fill:#fff"/><path d="M35.3,43.7l.1-.2.7-3.4h.1l-.7,3.2,1.9-1.9a2.14,2.14,0,0,0,.7-1.8,2.26,2.26,0,0,1,.6-2.1l.1.1a1.93,1.93,0,0,0-.5,2.1,2.6,2.6,0,0,1-.7,1.9Z" style="fill:#fff"/><path d="M32.5,40.9l.1-.1s1.8-1.7,2.1-2a2.4,2.4,0,0,1,1.9-.7h.2c.5.1.9.1,1.9-.6l.1.1-2.7,2.6h0Zm3.9-2.6a2.13,2.13,0,0,0-1.6.7c-.3.3-1.5,1.5-2,1.9l3.2-.6,2.2-2.2a2.07,2.07,0,0,1-1.4.3h-.2C36.5,38.3,36.5,38.3,36.4,38.3Z" style="fill:#fff"/><path d="M32.3,47.9v-.2l.3-3.5h.1l-.3,3.3,1.7-2.1a2.63,2.63,0,0,0,.5-1.9,2.1,2.1,0,0,1,.4-2.2l.1.1a2.09,2.09,0,0,0-.3,2.1,2.22,2.22,0,0,1-.5,1.9Z" style="fill:#fff"/><path d="M29.2,45.4l.1-.1s1.6-1.9,1.9-2.2a2.27,2.27,0,0,1,1.8-.9h.2c.5,0,.9.1,1.8-.8l.1.1-2.4,2.9h0ZM33,42.3a2.09,2.09,0,0,0-1.7.9c-.3.3-1.4,1.6-1.8,2.1l3.1-.9L34.5,42a1.61,1.61,0,0,1-1.1.4h-.2c0-.1-.1-.1-.2-.1Z" style="fill:#fff"/><path d="M29.7,52.2V48.5h.1v3.3l1.5-2.3a2.08,2.08,0,0,0,.3-1.9,2.18,2.18,0,0,1,.1-2.2l.1.1a2,2,0,0,0-.1,2.1,3,3,0,0,1-.3,2Z" style="fill:#fff"/><path d="M26.4,50.1l.1-.1s1.4-2,1.7-2.4a2.54,2.54,0,0,1,1.7-1.1h.2c.5,0,.9-.1,1.7-.9l.1.1-2.1,3.1h0Zm3.5-3.4h0a2.53,2.53,0,0,0-1.7,1c-.2.3-1.2,1.7-1.5,2.2l3.1-1.3,1.7-2.5a1.65,1.65,0,0,1-1.3.5C30,46.7,30,46.7,29.9,46.7Z" style="fill:#fff"/><path d="M27.5,56.9v-.2l-.3-3.5h.1l.3,3.3,1.3-2.4a2.48,2.48,0,0,0,.1-1.9A2.41,2.41,0,0,1,29,50l.1.1a1.93,1.93,0,0,0,.1,2.1,2.39,2.39,0,0,1-.1,2Z" style="fill:#fff"/><path d="M24,55.1V55s1.2-2.1,1.4-2.5A2.56,2.56,0,0,1,27,51.2h0c.1,0,.1,0,.2-.1.5-.1.9-.1,1.6-1.1l.1.1-1.7,3.3h0Zm3.2-3.8a2,2,0,0,0-1.5,1.2c-.2.3-1.1,1.9-1.3,2.3l2.9-1.5,1.5-2.7a1.88,1.88,0,0,1-1.3.7c-.2-.1-.3,0-.3,0Z" style="fill:#fff"/><path d="M25.8,61.8l-.7-3.6h.1l.7,3.2,1-2.5a2.06,2.06,0,0,0-.1-1.9,2.27,2.27,0,0,1-.3-2.2h.1a2.12,2.12,0,0,0,.3,2.1,2.7,2.7,0,0,1,.1,2Z" style="fill:#fff"/><path d="M22.2,60.3l.1-.2,1.2-2.7A2.32,2.32,0,0,1,25,56h.1c.5-.1.9-.2,1.5-1.3l.1.1-1.4,3.5h0Zm4.1-5a1.93,1.93,0,0,1-1.2.8c-.1,0-.1.1-.2.1a2.54,2.54,0,0,0-1.4,1.3L22.4,60l2.7-1.8Z" style="fill:#fff"/><path d="M24.6,66.8l-1.1-3.5h.1l.9,3.1.7-2.6a2.43,2.43,0,0,0-.3-1.9,2.14,2.14,0,0,1-.5-2.1h.1a2.32,2.32,0,0,0,.5,2.1,2.68,2.68,0,0,1,.3,2Z" style="fill:#fff"/><path d="M20.8,65.7l.1-.2s.7-2.3.9-2.7a2.46,2.46,0,0,1,1.3-1.5h0c.1,0,.1-.1.2-.1.5-.1.8-.3,1.3-1.4l.1.1-1.1,3.6h0Zm2.4-4.4a2.46,2.46,0,0,0-1.3,1.5c-.1.3-.7,2-.9,2.6l2.5-2.1.9-2.9a1.49,1.49,0,0,1-1.1.9c0-.1-.1,0-.1,0Z" style="fill:#fff"/><path d="M23.9,71.8l-.1-.2-1.3-3.2.1-.1,1.3,3,.5-2.7a2.23,2.23,0,0,0-.4-1.9,2.26,2.26,0,0,1-.7-2.1h.1a2.07,2.07,0,0,0,.7,2,2.47,2.47,0,0,1,.5,1.9Z" style="fill:#fff"/><path d="M20,71.1l.1-.2s.5-2.4.6-2.8a2.57,2.57,0,0,1,1.1-1.7h0c.1-.1.1-.1.2-.1.4-.2.8-.4,1.2-1.5h.1l-.7,3.7h0Zm1.9-4.5a2.36,2.36,0,0,0-1.1,1.6c-.1.3-.5,2.1-.6,2.7l2.3-2.3.6-3a1.58,1.58,0,0,1-1,1c-.1-.1-.1,0-.2,0Z" style="fill:#fff"/><path d="M23.8,76.9,22,73.7l.1-.1,1.5,2.9.2-2.7a2.48,2.48,0,0,0-.6-1.8,2.39,2.39,0,0,1-.9-2h.1a1.88,1.88,0,0,0,.9,1.9,2.49,2.49,0,0,1,.7,1.9Z" style="fill:#fff"/><path d="M19.8,76.7v-.2l.3-2.9a2,2,0,0,1,1-1.7h0c.1-.1.1-.1.2-.1.4-.3.7-.5,1-1.7h.1l-.3,3.7h0Zm2.5-6a2.1,2.1,0,0,1-.9,1.1c-.1.1-.1.1-.2.1h0a2.07,2.07,0,0,0-.9,1.7L20,76.3l2.1-2.5Z" style="fill:#fff"/><path d="M24,82.1l-2.1-3L22,79l1.9,2.7L23.8,79a2.31,2.31,0,0,0-.8-1.7,2.31,2.31,0,0,1-1.1-1.9H22a2,2,0,0,0,1.1,1.8,2.18,2.18,0,0,1,.8,1.9Z" style="fill:#fff"/><path d="M20.1,82.2V82s.1-2.5.1-2.9a2.56,2.56,0,0,1,.8-1.9h0c.1-.1.1-.1.2-.1.4-.3.7-.5.9-1.7h.1v3.7h0ZM22,75.9a1.93,1.93,0,0,1-.8,1.2c-.1.1-.1.1-.2.1h0a2.54,2.54,0,0,0-.8,1.8c0,.3-.1,2.1-.1,2.7L21.9,79Z" style="fill:#fff"/><path d="M24.9,87.1l-.1-.1-2.2-2.7.1-.1,2.1,2.5L24.5,84a2.64,2.64,0,0,0-.9-1.7,2.15,2.15,0,0,1-1.3-1.8h.1a2,2,0,0,0,1.3,1.7,2.32,2.32,0,0,1,1,1.7Z" style="fill:#fff"/><path d="M21,87.6v-.2s-.2-2.5-.3-2.9a2.12,2.12,0,0,1,.6-1.9h0c.1-.1.1-.1.2-.1a2,2,0,0,0,.7-1.8h.1l.4,3.7h0Zm1.2-6.3a2,2,0,0,1-.7,1.3l-.1.1h0a2.12,2.12,0,0,0-.6,1.9c0,.3.2,2.1.2,2.7l1.5-2.9Z" style="fill:#fff"/><path d="M26.2,92.1l-.1-.1-2.5-2.4.1-.1L26,91.8l-.6-2.7a2.19,2.19,0,0,0-1.1-1.5,2.38,2.38,0,0,1-1.5-1.7l.1-.1a2.11,2.11,0,0,0,1.4,1.6,2.71,2.71,0,0,1,1.2,1.7Z" style="fill:#fff"/><path d="M22.4,93l-.1-.2s-.5-2.4-.5-2.9a2.28,2.28,0,0,1,.5-2h0c.1-.1.1-.1.1-.2.3-.3.6-.7.5-1.9H23l.8,3.7h0Zm.6-6.5a1.58,1.58,0,0,1-.5,1.3c-.1.1-.1.1-.1.2h0a2.37,2.37,0,0,0-.4,1.9c.1.3.4,2.1.5,2.7l1.3-3.1Z" style="fill:#fff"/><path d="M28,96.9l-2.9-2.3.1-.1,2.5,2.1-.9-2.5a2.43,2.43,0,0,0-1.3-1.5,2.36,2.36,0,0,1-1.6-1.5L24,91a2.44,2.44,0,0,0,1.5,1.5A2.22,2.22,0,0,1,26.8,94Z" style="fill:#fff"/><path d="M24.2,98.2V98s-.7-2.3-.8-2.8a2.3,2.3,0,0,1,.3-2h0c.1-.1.1-.1.1-.2.3-.4.5-.7.3-1.9h.1l1.1,3.5h0Zm-.5-5a2.44,2.44,0,0,0-.2,1.9c.1.3.6,2.1.7,2.6l.9-3.1-.9-2.9a1.68,1.68,0,0,1-.4,1.4.1.1,0,0,1-.1.1Z" style="fill:#fff"/><path d="M30.3,101.5l-3.1-2,.1-.1,2.7,1.8-1.1-2.5a2.46,2.46,0,0,0-1.4-1.3,2.14,2.14,0,0,1-1.7-1.3l.1-.1a2.36,2.36,0,0,0,1.7,1.3,2.77,2.77,0,0,1,1.5,1.3Z" style="fill:#fff"/><path d="M26.7,103.1l-.1-.2s-.9-2.3-1.1-2.7a2,2,0,0,1,.1-2c.1-.1.1-.1.1-.2.3-.4.5-.8.1-1.9L26,96l1.5,3.4h0Zm-1.1-4.9h0a2.12,2.12,0,0,0,0,1.9c.1.3.8,2,1,2.5l.6-3.3L26,96.6a1.83,1.83,0,0,1-.3,1.4c.1.1,0,.2-.1.2Z" style="fill:#fff"/><path d="M33,105.8l-.1-.1-3.1-1.6.1-.1,2.9,1.5-1.3-2.3a2.1,2.1,0,0,0-1.5-1.1,2.55,2.55,0,0,1-1.9-1.1l.1-.1A2.13,2.13,0,0,0,30,102a2.15,2.15,0,0,1,1.6,1.2Z" style="fill:#fff"/><path d="M29.6,107.8l-.1-.2L28.2,105a2.85,2.85,0,0,1-.2-2h0c0-.1.1-.1.1-.2.2-.4.3-.8-.1-1.9l.1-.1,1.8,3.3h0Zm-1.5-4.7h0a2.13,2.13,0,0,0,.1,1.9c.2.3,1,1.9,1.3,2.4l.3-3.3-1.5-2.7a1.85,1.85,0,0,1-.1,1.5C28.2,103,28.2,103,28.1,103.1Z" style="fill:#fff"/><path d="M36.2,109.9l-3.4-1.3.1-.1,3.1,1.2-1.6-2.2a2.81,2.81,0,0,0-1.7-1,2.31,2.31,0,0,1-2-.9l.1-.1a2.15,2.15,0,0,0,1.9.9,2.16,2.16,0,0,1,1.7,1.1Z" style="fill:#fff"/><path d="M32.9,112.1l-.1-.1s-1.3-2.1-1.6-2.4a2.92,2.92,0,0,1-.4-2h0c0-.1.1-.1.1-.2a2,2,0,0,0-.3-1.9l.1-.1,2.1,3.1h0ZM31,105.9a1.91,1.91,0,0,1,0,1.5c0,.1-.1.1-.1.2h0a2.19,2.19,0,0,0,.3,1.9c.2.3,1.1,1.8,1.5,2.3l-.1-3.3Z" style="fill:#fff"/><path d="M39.7,113.6l-.2-.1-3.3-.9v-.1l3.1.9-1.8-2a2.39,2.39,0,0,0-1.6-.9h-.1a2.35,2.35,0,0,1-2.1-.7l.1-.1a2.11,2.11,0,0,0,2,.7h.1a2.43,2.43,0,0,1,1.7.9Z" style="fill:#fff"/><path d="M36.7,116.2l-1.9-2.4a2,2,0,0,1-.5-1.9h0c0-.1,0-.1.1-.2a2,2,0,0,0-.5-1.9l.1-.1,2.4,2.9h0Zm-2.4-4.3a2.62,2.62,0,0,0,.5,1.9l1.7,2.1-.4-3.3-2-2.3a1.92,1.92,0,0,1,.2,1.4v.2Z" style="fill:#fff"/><path d="M43.6,116.9l-3.6-.7v-.1l3.2.6-2-1.9a2.51,2.51,0,0,0-1.8-.7,2.47,2.47,0,0,1-2.1-.5l.1-.1a2.18,2.18,0,0,0,2.1.5h.3a2.55,2.55,0,0,1,1.6.7Z" style="fill:#fff"/><path d="M40.9,119.9l-.1-.1-2.1-2.1a2.28,2.28,0,0,1-.7-1.9h0v-.2c.1-.5.1-.9-.7-1.8l.1-.1,2.7,2.6h0Zm-3.1-5.8a2.07,2.07,0,0,1,.3,1.4v.2h0a2.09,2.09,0,0,0,.7,1.8l1.9,1.9-.7-3.2Z" style="fill:#fff"/><path d="M47.8,119.9h-.2l-3.5-.3v-.1l3.3.3-2.1-1.7a2.63,2.63,0,0,0-1.9-.5,2.27,2.27,0,0,1-2.2-.3l.1-.1a2.09,2.09,0,0,0,2.1.3,2.22,2.22,0,0,1,1.9.5Z" style="fill:#fff"/><path d="M45.4,123l-.1-.1a26,26,0,0,1-2.2-1.9,2.27,2.27,0,0,1-.9-1.8h0v-.3c0-.5,0-.9-.9-1.7l.1-.1,2.9,2.3h0Zm-3.7-5.3a1.77,1.77,0,0,1,.5,1.3v.2h0a2.09,2.09,0,0,0,.9,1.7,26.23,26.23,0,0,1,2.1,1.7l-1-3.1Z" style="fill:#fff"/><path d="M48.7,122.4v-.1l3.3-.1-2.3-1.4a2.08,2.08,0,0,0-1.9-.3,2.18,2.18,0,0,1-2.2-.1l.1-.1a2.25,2.25,0,0,0,2.1.1,2.45,2.45,0,0,1,2,.3l2.6,1.6Z" style="fill:#fff"/><path d="M50.2,125.8l-.1-.1-2.4-1.6a2.34,2.34,0,0,1-1.1-1.7h0v-.2a2.37,2.37,0,0,0-1-1.7l.1-.1,3.1,2h0Zm-3.6-3.5a2.27,2.27,0,0,0,1.1,1.6c.3.2,1.7,1.2,2.3,1.5l-1.3-3-2.6-1.7a2.15,2.15,0,0,1,.6,1.3c-.1.2-.1.2-.1.3Z" style="fill:#fff"/><path d="M53.4,124.8v-.1l3.3-.4-2.4-1.2a2.48,2.48,0,0,0-1.9-.1,2.38,2.38,0,0,1-2.2.1l.1-.1a2.16,2.16,0,0,0,2.1-.1,2.32,2.32,0,0,1,2,.1l2.7,1.3h-.2Z" style="fill:#fff"/><path d="M55.2,128l-.2-.1s-2.1-1.1-2.5-1.4a2.56,2.56,0,0,1-1.3-1.6h0c0-.1,0-.1-.1-.2-.1-.5-.1-.9-1.1-1.5l.1-.1,3.3,1.7h0Zm-3.9-3a2,2,0,0,0,1.2,1.5c.3.2,1.9,1,2.4,1.3l-1.6-2.9-2.7-1.4a1.55,1.55,0,0,1,.7,1.3v.2Z" style="fill:#fff"/><path d="M58.3,126.8v-.1l3.2-.7L59,125a2.06,2.06,0,0,0-1.9.1,2.27,2.27,0,0,1-2.2.3v-.1A2.12,2.12,0,0,0,57,125a2.7,2.7,0,0,1,2-.1l2.9,1.1-.2.1Z" style="fill:#fff"/><path d="M60.5,129.7l-.2-.1s-2.3-.9-2.7-1.1a2.32,2.32,0,0,1-1.4-1.5h0c0-.1-.1-.1-.1-.2-.1-.5-.3-.9-1.3-1.4l.1-.1,3.5,1.3h0Zm-5.1-4a2.86,2.86,0,0,1,.9,1.2c0,.1.1.1.1.2h0a2.54,2.54,0,0,0,1.3,1.4c.3.1,1.9.8,2.5,1.1l-1.9-2.7Z" style="fill:#fff"/><path d="M63.4,128.2l-.1-.1,3.1-1-2.6-.7a2.43,2.43,0,0,0-1.9.3,2.14,2.14,0,0,1-2.1.5v-.1a2.32,2.32,0,0,0,2.1-.5,2.25,2.25,0,0,1,2-.3l3,.8-.2.1Z" style="fill:#fff"/><path d="M65.9,131l-.2-.1s-2.3-.7-2.8-.9a2.2,2.2,0,0,1-1.5-1.3h0c0-.1-.1-.1-.1-.2-.2-.5-.3-.8-1.5-1.3l.1-.1,3.6,1h0Zm-4.5-2.3a2.29,2.29,0,0,0,1.5,1.2c.3.1,2,.6,2.6.8l-2.1-2.5-3-.8a1.49,1.49,0,0,1,.9,1.1c.1.1.1.1.1.2Z" style="fill:#fff"/><path d="M68.6,129.2l-.1-.1,3-1.3-2.7-.4a2.47,2.47,0,0,0-1.9.5,2,2,0,0,1-2.1.7v-.1h.3a2.24,2.24,0,0,0,1.7-.7,2.42,2.42,0,0,1,1.9-.5l3.1.5Z" style="fill:#fff"/><path d="M71.3,131.6l-.2-.1s-2.4-.5-2.9-.5a2.26,2.26,0,0,1-1.7-1.1h0c-.1-.1-.1-.1-.1-.2-.2-.4-.4-.8-1.6-1.1v-.1l3.7.6h0Zm-4.5-1.8a2.36,2.36,0,0,0,1.6,1.1c.3.1,2.1.4,2.7.5l-2.4-2.3-3.1-.5a2.18,2.18,0,0,1,1.1,1c0,.1,0,.2.1.2Z" style="fill:#fff"/><path d="M73.9,129.6h0l2.7-1.7-2.7-.1a2.31,2.31,0,0,0-1.8.7,2.39,2.39,0,0,1-2,.9v-.1a2.06,2.06,0,0,0,1.9-.9,2.38,2.38,0,0,1,1.7-.7h.2l3.1.1Z" style="fill:#fff"/><path d="M76.9,131.7h-.2s-2.5-.2-2.9-.3a2.61,2.61,0,0,1-1.8-.9h0c-.1-.1-.1-.1-.1-.2-.3-.4-.5-.7-1.7-1v-.1l3.7.3h0Zm-6.1-2.4c.7.3.9.5,1.1.9.1.1.1.1.1.2h0a2.07,2.07,0,0,0,1.7.9c.3.1,2.1.2,2.7.3l-2.6-2Z" style="fill:#fff"/><path d="M75.5,129.5v-.1a2,2,0,0,0,1.8-1.1,2.22,2.22,0,0,1,1.8-.9l3.1-.1-.1.1-2.8,2-.1-.1,2.7-1.9-2.7.1a2.31,2.31,0,0,0-1.7.8A2.35,2.35,0,0,1,75.5,129.5Z" style="fill:#fff"/><path d="M79.3,131.3a2.56,2.56,0,0,1-1.9-.8h0c-.1-.1-.1-.1-.1-.2-.3-.4-.5-.7-1.7-.8v-.1l3.7-.1h0l3.1,1.9h-.2s-2.5.1-2.9.1Zm-3.2-1.8a1.89,1.89,0,0,1,1.2.7c.1.1.1.1.1.2h0a2.06,2.06,0,0,0,1.7.7h2.7L79,129.4Z" style="fill:#fff"/><path d="M80.8,129.2v-.1a2.39,2.39,0,0,0,1.7-1.3,2.62,2.62,0,0,1,1.7-1.1l3.1-.5-.1.1-2.6,2.3-.1-.1,2.5-2.1-2.7.4a2.49,2.49,0,0,0-1.7,1A2.08,2.08,0,0,1,80.8,129.2Z" style="fill:#fff"/><path d="M84.4,130.6a2.11,2.11,0,0,1-1.6-.6l-.1-.1c-.3-.3-.6-.6-1.8-.6h0v-.1l3.7-.5h0l3.3,1.7h-.2s-2.5.3-2.9.3A.76.76,0,0,0,84.4,130.6Zm-1.5-.6a2,2,0,0,0,1.5.6h.3c.3-.1,2.1-.2,2.7-.3l-2.9-1.5-3.1.4a2,2,0,0,1,1.3.6C82.8,129.8,82.8,129.9,82.9,130Z" style="fill:#fff"/><path d="M86.1,128.4l-.1-.1a1.91,1.91,0,0,0,1.5-1.5,2.38,2.38,0,0,1,1.6-1.2l3-.7-.1.1-2.3,2.5-.1-.1,2.2-2.4-2.6.7a2.63,2.63,0,0,0-1.5,1.1A2.33,2.33,0,0,1,86.1,128.4Z" style="fill:#fff"/><path d="M89.4,129.4a1.87,1.87,0,0,1-1.4-.5h0c-.1-.1-.1-.1-.2-.1-.3-.3-.7-.6-1.9-.5v-.1l3.7-.9,3.5,1.3-.2.1-2.9.6A1.27,1.27,0,0,1,89.4,129.4Zm-1.2-.5a2.37,2.37,0,0,0,1.9.4c.3-.1,2.1-.4,2.7-.5l-3.1-1.1-3,.7a1.58,1.58,0,0,1,1.3.5c0-.1.1-.1.2,0Z" style="fill:#fff"/><path d="M91.2,127l-.1-.1a2.16,2.16,0,0,0,1.4-1.6c.3-1,1.4-1.3,1.5-1.4l2.9-1.1-.1.1-2.1,2.7-.1-.1,2-2.6L94,124a2.14,2.14,0,0,0-1.4,1.3A2,2,0,0,1,91.2,127Z" style="fill:#fff"/><path d="M94.4,127.8a2,2,0,0,1-1.1-.3c-.1-.1-.1-.1-.2-.1-.4-.3-.7-.5-1.9-.3V127l3.5-1.2h0l3.5.9-.2.1s-2.3.7-2.7.9C95,127.7,94.7,127.8,94.4,127.8Zm-1.1-.4a2.44,2.44,0,0,0,1.9.2c.3-.1,2-.7,2.6-.8l-3.2-.9-2.9,1a1.83,1.83,0,0,1,1.4.3Z" style="fill:#fff"/><path d="M96.2,125.2h0a2.54,2.54,0,0,0,1.2-1.8,2.43,2.43,0,0,1,1.3-1.5l2.8-1.3-1.9,3.1-.1-.1,1.7-2.8-2.5,1.1a2.43,2.43,0,0,0-1.3,1.5A2.14,2.14,0,0,1,96.2,125.2Z" style="fill:#fff"/><path d="M99.2,125.6a2.39,2.39,0,0,1-.9-.2h0c-.1-.1-.1-.1-.2-.1a2.21,2.21,0,0,0-1.9-.1l-.1-.1,3.4-1.5h0l3.7.6-.2.1s-2.3.9-2.7,1.1A2,2,0,0,1,99.2,125.6Zm-2-.7a1.22,1.22,0,0,1,.9.3c.1.1.1.1.2.1h0a2.12,2.12,0,0,0,1.9,0c.3-.1,1.9-.9,2.5-1.1l-3.3-.5L96.6,125A1.49,1.49,0,0,1,97.2,124.9Z" style="fill:#fff"/><path d="M100.9,122.9h0a2.57,2.57,0,0,0,1-1.9,2.41,2.41,0,0,1,1.2-1.7l2.6-1.6-.1.2-1.5,3.1H104l1.4-2.9-2.3,1.4A2.4,2.4,0,0,0,102,121,2.17,2.17,0,0,1,100.9,122.9Z" style="fill:#fff"/><path d="M103.8,123c-.3,0-.5-.1-.7-.1h0c-.1,0-.1-.1-.2-.1-.5-.2-.8-.3-1.9.1l-.1-.1,3.2-1.9h0l3.7.2-2.7,1.5A2.42,2.42,0,0,1,103.8,123Zm-1.7-.5a2.35,2.35,0,0,1,.8.2c.1,0,.1.1.2.1h0a2.54,2.54,0,0,0,1.9-.2l2.4-1.3-3.3-.2-2.7,1.5A2.25,2.25,0,0,1,102.1,122.5Z" style="fill:#fff"/><path d="M105.4,120.1h0a2.6,2.6,0,0,0,.8-2,2.16,2.16,0,0,1,1-1.7l2.5-1.9-1.3,3.4-.1-.1,1.1-3.1-2.1,1.6a2.43,2.43,0,0,0-.9,1.7A2.38,2.38,0,0,1,105.4,120.1Z" style="fill:#fff"/><path d="M105.4,120.1h0l2.9-2.3h0l3.7-.1-.1.1s-2,1.4-2.4,1.7a2.14,2.14,0,0,1-2,.4h0c-.1,0-.1-.1-.2-.1A2,2,0,0,0,105.4,120.1Zm2.1-.3a2.66,2.66,0,0,0,1.9-.4c.3-.2,1.7-1.2,2.2-1.5l-3.3.1-2.5,1.8a2,2,0,0,1,1.5-.1c.1,0,.2,0,.2.1Z" style="fill:#fff"/><path d="M109.6,116.9h0a2.32,2.32,0,0,0,.6-2.1,2.76,2.76,0,0,1,.8-1.9l2.3-2.1-.1.2-.9,3.3h-.1l.8-3.1-2,1.8a2.13,2.13,0,0,0-.8,1.7A2,2,0,0,1,109.6,116.9Z" style="fill:#fff"/><path d="M109.6,116.9h0l2.7-2.5h0l3.7-.5-.1.1s-1.9,1.6-2.2,1.9a2.83,2.83,0,0,1-1.6.7h-.3c-.1,0-.1,0-.2-.1C111,116.3,110.6,116.2,109.6,116.9Zm2.8-2.4-2.3,2.1a1.92,1.92,0,0,1,1.4-.2c.1,0,.1,0,.2.1h.3a2.2,2.2,0,0,0,1.5-.6,19.32,19.32,0,0,1,2.1-1.7Z" style="fill:#fff"/><path d="M113.5,113.3h0a2.48,2.48,0,0,0,.4-2.1,2.11,2.11,0,0,1,.7-1.9l2.1-2.3-.5,3.6h-.1l.5-3.2-1.8,2a2.39,2.39,0,0,0-.6,1.8A4,4,0,0,1,113.5,113.3Z" style="fill:#fff"/><path d="M113.5,113.3h0l2.5-2.8h0l3.6-.9-.1.1s-1.7,1.7-2,2.1a2.46,2.46,0,0,1-1.7.8h-.3A2,2,0,0,0,113.5,113.3Zm2.5-2.8-2.1,2.3a1.62,1.62,0,0,1,1.4-.3h.3a2.46,2.46,0,0,0,1.7-.8l1.9-1.9Z" style="fill:#fff"/><path d="M117,109.3h0a2.52,2.52,0,0,0,.2-2.2,1.94,1.94,0,0,1,.5-1.9l1.8-2.5v.2l-.2,3.5h-.1l.2-3.3-1.6,2.2a2.32,2.32,0,0,0-.4,1.9A3,3,0,0,1,117,109.3Z" style="fill:#fff"/><path d="M117,109.3h0l2.2-3.1h0l3.5-1.2-.1.1-1.8,2.3a2.74,2.74,0,0,1-1.8,1h0A2,2,0,0,0,117,109.3Zm2.2-3-1.9,2.5a1.77,1.77,0,0,1,1.3-.5h.2a2.09,2.09,0,0,0,1.7-.9l1.7-2.1Z" style="fill:#fff"/><path d="M120.1,104.9l-.1-.1a2.25,2.25,0,0,0,.1-2.1,2.11,2.11,0,0,1,.3-2l1.5-2.7v.2l.1,3.5h-.1l-.1-3.3-1.3,2.3a2.62,2.62,0,0,0-.3,1.9A3.09,3.09,0,0,1,120.1,104.9Z" style="fill:#fff"/><path d="M120.1,104.9h0l1.9-3.3h0l3.3-1.5-.1.1s-1.3,2.1-1.5,2.5a2,2,0,0,1-1.7,1.1h-.2A2.26,2.26,0,0,0,120.1,104.9Zm1.9-3.1-1.6,2.7a1.7,1.7,0,0,1,1.3-.6h.2a2.27,2.27,0,0,0,1.6-1.1c.2-.3,1.1-1.8,1.5-2.3Z" style="fill:#fff"/><path d="M122.7,100.4l-.1-.1a2.46,2.46,0,0,0-.1-2.1,2,2,0,0,1,.1-2l1.3-2.8v.2l.5,3.4h-.1l-.5-3.2-1.1,2.5a2.58,2.58,0,0,0-.1,1.9A2.32,2.32,0,0,1,122.7,100.4Z" style="fill:#fff"/><path d="M122.7,100.4h0l1.5-3.5h0l3.2-1.9-.1.2L126,97.8a2.39,2.39,0,0,1-1.5,1.3h0c-.1,0-.1.1-.2.1C123.7,99.2,123.3,99.4,122.7,100.4Zm1.5-3.4-1.3,2.8a1.55,1.55,0,0,1,1.3-.7c.1,0,.1,0,.2-.1h0c.7-.1,1.1-.6,1.5-1.3.2-.3.9-1.9,1.2-2.4Z" style="fill:#fff"/><path d="M124.8,95.5h-.1a2.13,2.13,0,0,0-.4-2.1,2,2,0,0,1-.1-2l1-2.9.1.2.9,3.3H126l-.8-3.2-.9,2.5a2.46,2.46,0,0,0,.1,1.9A2.58,2.58,0,0,1,124.8,95.5Z" style="fill:#fff"/><path d="M124.8,95.5l-.1-.1,1.3-3.5h0l3-2.2-.1.2s-.9,2.3-1.1,2.7a2.59,2.59,0,0,1-1.4,1.5h0c-.1,0-.1.1-.2.1C125.8,94.3,125.4,94.4,124.8,95.5Zm1.3-3.5L125,94.9c.4-.7.8-.7,1.1-.9.1,0,.1-.1.2-.1a2,2,0,0,0,1.3-1.4,21.6,21.6,0,0,1,1-2.5Z" style="fill:#fff"/><path d="M126.5,90.4h-.1a2.34,2.34,0,0,0-.6-2.1,2.25,2.25,0,0,1-.3-2l.7-3,.1.2,1.2,3.3-.1.1-1.1-3.1-.6,2.6a2.43,2.43,0,0,0,.3,1.9A2.77,2.77,0,0,1,126.5,90.4Z" style="fill:#fff"/><path d="M126.5,90.5h-.1l.9-3.6h0l2.7-2.5-.1.2-.8,2.8a2.33,2.33,0,0,1-1.3,1.6h0c-.1.1-.1.1-.2.1C127.3,89.2,127,89.4,126.5,90.5Zm.9-3.6-.7,3a1.74,1.74,0,0,1,1.1-1c.1,0,.1-.1.2-.1h0a2.29,2.29,0,0,0,1.2-1.5l.7-2.6Z" style="fill:#fff"/><path d="M127.6,85.3h-.1a2.11,2.11,0,0,0-.8-2,2.42,2.42,0,0,1-.5-1.9l.4-3.1,1.5,3.3v.1l-1.4-2.9-.3,2.7a2.47,2.47,0,0,0,.5,1.9A1.81,1.81,0,0,1,127.6,85.3Z" style="fill:#fff"/><path d="M127.6,85.3h-.1l.5-3.7h0l2.5-2.7v.2s-.4,2.4-.5,2.9a2.26,2.26,0,0,1-1.1,1.7h0c-.1.1-.1.1-.2.1C128.4,83.9,128,84.1,127.6,85.3Zm.6-3.6-.5,3.1a2.1,2.1,0,0,1,.9-1.1c.1-.1.1-.1.2-.1h0a2.73,2.73,0,0,0,1.1-1.6c.1-.3.3-2.1.5-2.7Z" style="fill:#fff"/><path d="M128.2,80.1a2.3,2.3,0,0,0-.9-1.9,2.4,2.4,0,0,1-.7-1.9l.1-3.1.1.1,1.8,2.9-.1.1-1.7-2.8-.1,2.7a2.31,2.31,0,0,0,.7,1.8,2.39,2.39,0,0,1,1,1.9Z" style="fill:#fff"/><path d="M128.3,80.1h-.1l.2-3.7h0l2.2-3v.2s-.2,2.5-.2,2.9a2.27,2.27,0,0,1-.9,1.8h0c-.1.1-.1.1-.2.1C128.8,78.6,128.5,78.9,128.3,80.1Zm.1-3.8-.1,3.1a1.93,1.93,0,0,1,.9-1.2c.1-.1.1-.1.2-.1h0a2.59,2.59,0,0,0,.9-1.7c0-.3.1-2.1.2-2.7Z" style="fill:#fff"/><path d="M128.3,74.7a2,2,0,0,0-1.1-1.8,2.22,2.22,0,0,1-.9-1.8l-.2-3.1.1.1,2.1,2.7-.1.1-1.9-2.6.2,2.7a2.64,2.64,0,0,0,.9,1.7,2.3,2.3,0,0,1,1.2,1.9Z" style="fill:#fff"/><path d="M128.4,74.7h-.1l-.1-3.7h0l1.9-3.2V68s.1,2.5.1,2.9a2.49,2.49,0,0,1-.7,1.9c-.1.1-.1.1-.2.1A2,2,0,0,0,128.4,74.7Zm-.2-3.6.2,3.1a2,2,0,0,1,.7-1.3c.1-.1.1-.1.2-.1h0A2.41,2.41,0,0,0,130,71c0-.4-.1-2.1-.1-2.7Z" style="fill:#fff"/><path d="M127.9,69.5a2.62,2.62,0,0,0-1.3-1.7,2.62,2.62,0,0,1-1.1-1.7l-.5-3,2.5,2.7-.1.1-2.2-2.4.5,2.7a2.13,2.13,0,0,0,1.1,1.6,2.27,2.27,0,0,1,1.4,1.7Z" style="fill:#fff"/><path d="M127.9,69.5l-.6-3.7h0l1.5-3.3v.2s.3,2.5.4,2.9a2.29,2.29,0,0,1-.5,1.9h0c-.1.1-.1.1-.1.2-.4.3-.6.6-.7,1.8Zm-.5-3.7.5,3.1c.1-.8.3-1.1.6-1.3l.1-.1h0a2.08,2.08,0,0,0,.5-1.9,18.47,18.47,0,0,1-.3-2.7Z" style="fill:#fff"/><path d="M126.9,64.3a1.91,1.91,0,0,0-1.5-1.5,2.31,2.31,0,0,1-1.3-1.6l-.8-2.9.1.1,2.6,2.3-.1.1-2.5-2.2.7,2.6a2.51,2.51,0,0,0,1.2,1.5,2.21,2.21,0,0,1,1.5,1.6Z" style="fill:#fff"/><path d="M126.9,64.3l-.9-3.6h0l1.2-3.5.1.2a28.27,28.27,0,0,0,.7,2.8,2.25,2.25,0,0,1-.3,2h0c-.1.1-.1.1-.1.2-.3.4-.5.7-.4,1.9Zm-.8-3.7.8,3c0-.8.2-1.1.5-1.3.1-.1.1-.1.1-.2h0a2.09,2.09,0,0,0,.3-1.9c-.1-.3-.5-2.1-.6-2.7Z" style="fill:#fff"/><path d="M125.5,59.2a2.22,2.22,0,0,0-1.6-1.3,2.28,2.28,0,0,1-1.4-1.5l-1.1-2.9.1.1,2.8,2-.1.1-2.7-1.9,1,2.5a2.49,2.49,0,0,0,1.3,1.4,2,2,0,0,1,1.7,1.5Z" style="fill:#fff"/><path d="M125.4,59.2l-1.3-3.5h0L125,52l.1.2s.8,2.3.9,2.7a2.32,2.32,0,0,1-.1,2h0c-.1.1-.1.1-.1.2-.3.4-.5.7-.2,1.9Zm-1.1-3.5,1.1,2.9a1.83,1.83,0,0,1,.3-1.4c.1-.1.1-.1.1-.2h0a2.09,2.09,0,0,0,.1-1.9c-.1-.3-.7-2-.9-2.5Z" style="fill:#fff"/><path d="M123.5,54.2a2.13,2.13,0,0,0-1.7-1.2,2.43,2.43,0,0,1-1.5-1.3L118.9,49l.1.1,3,1.7-.1.1-2.8-1.7,1.2,2.4a2.43,2.43,0,0,0,1.5,1.3,1.85,1.85,0,0,1,1.7,1.3Z" style="fill:#fff"/><path d="M123.5,54.2l-1.7-3.3h0l.5-3.7.1.2s1,2.3,1.2,2.7a2.79,2.79,0,0,1,.1,2h0c0,.1-.1.1-.1.2a2.21,2.21,0,0,0-.1,1.9ZM122,50.9l1.3,2.8a2.29,2.29,0,0,1,.2-1.5c0-.1.1-.1.1-.2h0a1.86,1.86,0,0,0-.1-1.9c-.1-.3-.9-1.9-1.1-2.5Z" style="fill:#fff"/><path d="M121.1,49.6a2.16,2.16,0,0,0-1.9-1,2.44,2.44,0,0,1-1.7-1.1l-1.7-2.6.2.1,3.1,1.5-.1.1-3-1.3,1.5,2.3a2.41,2.41,0,0,0,1.6,1.1,1.74,1.74,0,0,1,2,.9Z" style="fill:#fff"/><path d="M121.1,49.6l-1.9-3.2h0l.1-3.7.1.1s1.3,2.1,1.5,2.5a2.41,2.41,0,0,1,.3,2h0c0,.1-.1.1-.1.2-.2.5-.3.8.2,1.9Zm-1.8-3.2,1.6,2.6a1.53,1.53,0,0,1,.1-1.5c0-.1.1-.1.1-.2a2.19,2.19,0,0,0-.3-1.9c-.2-.3-1.1-1.9-1.3-2.3Z" style="fill:#fff"/><path d="M118.2,45.1a2.3,2.3,0,0,0-1.9-.8h-.1a2.18,2.18,0,0,1-1.7-.9L112.6,41l.2.1,3.3,1.1-.1.1-3.1-1.1,1.7,2.1a2.43,2.43,0,0,0,1.7.9h.1a2.79,2.79,0,0,1,1.8.9Z" style="fill:#fff"/><path d="M118.2,45.1l-2.3-2.9h0l-.2-3.7,1.8,2.5a2.54,2.54,0,0,1,.5,2h0c0,.1-.1.1-.1.2a1.87,1.87,0,0,0,.4,1.9Zm-2.1-3,1.9,2.5a2,2,0,0,1-.1-1.5c0-.1.1-.1.1-.2h0a2.24,2.24,0,0,0-.5-1.9l-1.6-2.2Z" style="fill:#fff"/><path d="M114.9,41a2.09,2.09,0,0,0-2-.6h-.2a2.62,2.62,0,0,1-1.7-.8l-2.1-2.2,3.5.8v.1l-3.2-.7,1.9,1.9a2.55,2.55,0,0,0,1.6.7h.2a2.11,2.11,0,0,1,2.1.7Z" style="fill:#fff"/><path d="M114.9,41l-2.5-2.7h0l-.6-3.7,2.1,2.3a3,3,0,0,1,.7,1.9h0c0,.1,0,.1-.1.2-.2.5-.2.9.4,2Zm-2.4-2.8,2.1,2.3a2.15,2.15,0,0,1-.3-1.4c0-.1,0-.1.1-.2h0a2,2,0,0,0-.6-1.8l-1.8-2Z" style="fill:#fff"/><path d="M111.2,37.2a2.15,2.15,0,0,0-2.1-.4,2.15,2.15,0,0,1-1.9-.6l-2.3-2h.2l3.4.5v.1l-3.3-.4,2.1,1.7a2.39,2.39,0,0,0,1.8.6,2.23,2.23,0,0,1,2.1.5Z" style="fill:#fff"/><path d="M111.2,37.2l-2.8-2.5h0l-.9-3.5.1.1s1.8,1.7,2.1,1.9a2.32,2.32,0,0,1,.9,1.9h0v.2c-.1.5-.1.9.7,1.8Zm-2.7-2.5,2.3,2a1.7,1.7,0,0,1-.4-1.4v-.2h0a2.14,2.14,0,0,0-.8-1.7c-.3-.3-1.5-1.5-2-1.9Z" style="fill:#fff"/><path d="M107.1,33.9a2.31,2.31,0,0,0-2.1-.2,1.09,1.09,0,0,1-.5.1,2.41,2.41,0,0,1-1.4-.5l-2.5-1.7,3.7.1v.1l-3.3-.1,2.2,1.5a2.32,2.32,0,0,0,1.9.4,2.16,2.16,0,0,1,2,.3Z" style="fill:#fff"/><path d="M107.1,33.9,104,31.8l-1.3-3.5.1.1s1.9,1.5,2.3,1.7a2.38,2.38,0,0,1,1,1.7h0V32c0,.5,0,.9,1,1.9Zm-2.9-2.3,2.5,1.8a1.65,1.65,0,0,1-.5-1.3v-.2a2.53,2.53,0,0,0-1-1.7c-.3-.2-1.7-1.3-2.1-1.6Z" style="fill:#fff"/><path d="M99.9,31a3.25,3.25,0,0,1-1.3-.3L96,29.2h.2l3.5-.3V29l-3.3.2,2.4,1.3a2.31,2.31,0,0,0,1.9.2,2.15,2.15,0,0,1,2.2,0l-.1.1a2.19,2.19,0,0,0-2.1,0A1.34,1.34,0,0,1,99.9,31Z" style="fill:#fff"/><path d="M102.8,30.9,99.5,29h0l-1.7-3.3.1.1s2.1,1.3,2.5,1.5a2.14,2.14,0,0,1,1.2,1.7h0v.2c.1.5.1.9,1.1,1.6ZM99.6,29l2.7,1.5a2.4,2.4,0,0,1-.7-1.3V29h0a1.92,1.92,0,0,0-1.1-1.5c-.3-.2-1.8-1.1-2.3-1.4Z" style="fill:#fff"/><path d="M95,28.8c-.6,0-1.1-.2-1.1-.3l-2.8-1.2h.2l3.4-.6v.1l-3.2.5L94,28.4a2.28,2.28,0,0,0,1.9,0,2.33,2.33,0,0,1,2.2-.2l-.1.1a2.42,2.42,0,0,0-2.1.2A1,1,0,0,1,95,28.8Z" style="fill:#fff"/><path d="M98.1,28.4l-3.4-1.5h0l-1.9-3.1.2.1,2.6,1.3a2.39,2.39,0,0,1,1.3,1.5h0c0,.1.1.1.1.2.1.5.2.9,1.3,1.5Zm-3.3-1.6,2.8,1.3a1.93,1.93,0,0,1-.8-1.2c0-.1,0-.1-.1-.2h0a2.67,2.67,0,0,0-1.3-1.5A26.78,26.78,0,0,0,93,24Z" style="fill:#fff"/><path d="M90,27.1a5.53,5.53,0,0,1-.9-.1l-2.9-1,3.5-1v.1l-3.1.9,2.6.8a2.22,2.22,0,0,0,1.9-.2,2.41,2.41,0,0,1,2.1-.5v.1a2.32,2.32,0,0,0-2.1.4A1.39,1.39,0,0,1,90,27.1Z" style="fill:#fff"/><path d="M93.2,26.4l-3.5-1.2h0l-2.3-2.9,2.9,1.1a2.33,2.33,0,0,1,1.5,1.4h0c0,.1.1.1.1.2.1.5.3.9,1.4,1.3Zm-3.5-1.3,2.9,1a1.49,1.49,0,0,1-.9-1.1c0-.1-.1-.1-.1-.2h0a2.26,2.26,0,0,0-1.4-1.3l-2.5-.9Z" style="fill:#fff"/><path d="M84.7,25.9a2.18,2.18,0,0,1-.6-.1l-3-.6,3.4-1.3.1.1-3.1,1.2,2.7.5a2.23,2.23,0,0,0,1.9-.4,2.36,2.36,0,0,1,1.6-.7h.5v.1h-.5a2,2,0,0,0-1.5.7A2.44,2.44,0,0,1,84.7,25.9Z" style="fill:#fff"/><path d="M88.1,24.8,84.5,24h0L82,21.3l3,.7a2.48,2.48,0,0,1,1.6,1.2h0c.1.1.1.1.1.2.2.4.3.8,1.5,1.2v.2Zm-3.6-.9,3,.7a1.5,1.5,0,0,1-1-1.1c0-.1-.1-.1-.1-.2h0a1.92,1.92,0,0,0-1.5-1.1l-2.6-.7Z" style="fill:#fff"/><path d="M79.4,25.2h-.3L76,24.8l3.3-1.7.1.1-2.9,1.5,2.7.3a2.73,2.73,0,0,0,1.8-.5,2.32,2.32,0,0,1,1.9-.9H83v.1h-.1a2.27,2.27,0,0,0-1.9.8A2.05,2.05,0,0,1,79.4,25.2Z" style="fill:#fff"/><path d="M82.9,23.8l-3.7-.5h0l-2.8-2.4h.2s2.4.3,2.9.4a2.26,2.26,0,0,1,1.7,1.1h0c.1.1.1.1.1.2a2.33,2.33,0,0,0,1.6,1.1Zm-3.6-.6,3.1.4a2.1,2.1,0,0,1-1.1-.9c-.1-.1-.1-.1-.1-.2a2.26,2.26,0,0,0-1.7-1c-.3-.1-2.1-.3-2.7-.4Z" style="fill:#fff"/><rect x="169.1" y="138.5" width="71.3" height="6.6" style="fill:#fff"/><path d="M169.1,21.9c0-8.1,3.7-12.6,10-12.6a13.07,13.07,0,0,1,7.1,2.1l-1.7,3.8a8.84,8.84,0,0,0-4.7-1.6c-3.9,0-5.8,3-5.8,8.4s1.9,8.4,5.9,8.4a8.36,8.36,0,0,0,4.8-1.6l1.7,3.8a12.59,12.59,0,0,1-7.1,2.1C172.8,34.6,169.1,30.1,169.1,21.9Z" style="fill:#fff"/><path d="M188.5,24.9c0-6.3,2.9-9.7,8.1-9.7s8.1,3.5,8.1,9.7-2.9,9.7-8.1,9.7S188.5,31.1,188.5,24.9Zm11.8,0c0-3.8-1.3-5.9-3.7-5.9s-3.7,2.1-3.7,5.9,1.3,5.9,3.7,5.9S200.3,28.7,200.3,24.9Z" style="fill:#fff"/><path d="M208.4,29.8V8.8h4.4V29a1.24,1.24,0,0,0,1.3,1.4,5.16,5.16,0,0,0,1.1-.2V34a7.88,7.88,0,0,1-2.3.4C210.1,34.4,208.4,32.8,208.4,29.8Z" style="fill:#fff"/><path d="M217.7,29.8V8.8h4.4V29a1.24,1.24,0,0,0,1.3,1.4,5.16,5.16,0,0,0,1.1-.2V34a7.88,7.88,0,0,1-2.3.4C219.4,34.4,217.7,32.8,217.7,29.8Z" style="fill:#fff"/><path d="M241.8,26.7h-11c.4,2.7,1.9,4.1,4.4,4.1a8.34,8.34,0,0,0,4.5-1.5l1.5,3.5a12.64,12.64,0,0,1-6.5,1.8c-5.5,0-8.4-3.5-8.4-9.6,0-6.3,3-9.7,8-9.7s7.7,3.5,7.7,9.6A6.17,6.17,0,0,1,241.8,26.7Zm-10.9-3.4h6.9c-.2-2.9-1.2-4.4-3.1-4.4S231.3,20.4,230.9,23.3Z" style="fill:#fff"/><path d="M245.5,38.9l1.6-3.5a7.46,7.46,0,0,0,4.6,1.5c2.7,0,4.2-1.4,4.2-4V31.5h-.1a6,6,0,0,1-4.9,2.5c-4,0-6.3-3.2-6.3-8.9,0-6,2.4-10,6.5-10a5.93,5.93,0,0,1,4.8,2.5h.1V15.5h4.2v18c0,4.7-2.9,7.3-7.9,7.3A11.48,11.48,0,0,1,245.5,38.9Zm10.4-10.6V21a4.17,4.17,0,0,0-3.4-1.9c-2.2,0-3.5,2.5-3.5,6s1.3,5.2,3.3,5.2A4.77,4.77,0,0,0,255.9,28.3Z" style="fill:#fff"/><path d="M279.4,26.7h-11c.4,2.7,1.9,4.1,4.4,4.1a8.34,8.34,0,0,0,4.5-1.5l1.5,3.5a12.64,12.64,0,0,1-6.5,1.8c-5.5,0-8.4-3.5-8.4-9.6,0-6.3,3-9.7,8-9.7s7.7,3.5,7.7,9.6C279.5,25.4,279.5,26,279.4,26.7Zm-11-3.4h6.9c-.2-2.9-1.2-4.4-3.1-4.4S268.7,20.4,268.4,23.3Z" style="fill:#fff"/><path d="M289.5,24.9c0-6.3,2.9-9.7,8.1-9.7s8.1,3.5,8.1,9.7-2.9,9.7-8.1,9.7S289.5,31.1,289.5,24.9Zm11.8,0c0-3.8-1.3-5.9-3.7-5.9s-3.7,2.1-3.7,5.9,1.3,5.9,3.7,5.9S301.3,28.7,301.3,24.9Z" style="fill:#fff"/><path d="M310.6,19.3h-2.7V15.6h2.7V13.8c0-3.5,2.4-5.2,5.7-5.2A8.84,8.84,0,0,1,319,9v3.8a6.75,6.75,0,0,0-1.4-.2,2.46,2.46,0,0,0-2.7,2.5v.7h4v3.7h-4V34.3h-4.4l.1-15Z" style="fill:#fff"/><path d="M168.4,64.9l1.7-3.9a11.57,11.57,0,0,0,6.1,1.9c2.7,0,3.8-1.2,3.8-2.5s-1.3-2.5-4.9-4.1c-4.4-1.9-5.9-4.5-5.9-7.8,0-4.2,2.5-6.7,7.4-6.7a12.44,12.44,0,0,1,7.5,2.4l-1.7,3.9a9.7,9.7,0,0,0-5.5-2c-2.1,0-3,.9-3,2.1s1.1,2.3,4.4,3.8c5.1,2.4,6.5,4.9,6.5,8.1,0,4.5-2.9,7.1-8.4,7.1A12.66,12.66,0,0,1,168.4,64.9Z" style="fill:#fff"/><path d="M187.5,57.6c0-6.3,2.9-9.7,8.1-9.7s8.1,3.5,8.1,9.7-2.9,9.7-8.1,9.7S187.5,63.8,187.5,57.6Zm11.7,0c0-3.8-1.3-5.9-3.7-5.9s-3.7,2.1-3.7,5.9,1.3,5.9,3.7,5.9S199.2,61.4,199.2,57.6Z" style="fill:#fff"/><path d="M206.6,57.6c0-6.3,2.9-9.7,7.9-9.7a12.4,12.4,0,0,1,6.2,1.8l-1.5,3.4a7.17,7.17,0,0,0-4-1.4c-2.7,0-4.2,2-4.2,5.9s1.5,5.9,4.2,5.9a7.17,7.17,0,0,0,4-1.4l1.5,3.4a12.4,12.4,0,0,1-6.2,1.8C209.5,67.3,206.6,63.8,206.6,57.6Z" style="fill:#fff"/><path d="M223.5,44.1a2.7,2.7,0,1,1,2.7,2.8A2.65,2.65,0,0,1,223.5,44.1Zm.5,4.2h4.4V66.8H224Z" style="fill:#fff"/><path d="M247.4,66.1h0L243,67.2a6.12,6.12,0,0,1-.7-2.5h-.1a5.49,5.49,0,0,1-4.9,2.5c-3.3,0-5.4-2.3-5.4-5.8,0-4,2.7-6.4,6.9-6.4a11.42,11.42,0,0,1,3.3.5v-.7c0-2.1-1.2-3.1-3.5-3.1a7.38,7.38,0,0,0-4.5,1.5l-1.6-3.5a12.34,12.34,0,0,1,6.9-1.9c4.7,0,7.1,2.4,7.1,6.7v8.7A4.76,4.76,0,0,0,247.4,66.1Zm-5.2-4.3V59a7.51,7.51,0,0,0-2.6-.5c-2.1,0-3.3.9-3.3,2.7a2.13,2.13,0,0,0,2.4,2.3A4.87,4.87,0,0,0,242.2,61.8Z" style="fill:#fff"/><path d="M250.8,62.6v-21h4.4V61.8a1.24,1.24,0,0,0,1.3,1.4,5.16,5.16,0,0,0,1.1-.2v3.8a7.88,7.88,0,0,1-2.3.4C252.4,67.2,250.8,65.5,250.8,62.6Z" style="fill:#fff"/><path d="M267,54.6c0-8.1,3.7-12.6,10-12.6a13.07,13.07,0,0,1,7.1,2.1l-1.7,3.8a8.84,8.84,0,0,0-4.7-1.6c-3.9,0-5.8,3-5.8,8.4s1.9,8.4,5.9,8.4a8.36,8.36,0,0,0,4.8-1.6l1.7,3.8a12.59,12.59,0,0,1-7.1,2.1C270.6,67.3,267,62.8,267,54.6Z" style="fill:#fff"/><path d="M286.4,57.6c0-6.3,2.9-9.7,8.1-9.7s8.1,3.5,8.1,9.7-2.9,9.7-8.1,9.7S286.4,63.8,286.4,57.6Zm11.8,0c0-3.8-1.3-5.9-3.7-5.9s-3.7,2.1-3.7,5.9,1.3,5.9,3.7,5.9S298.2,61.4,298.2,57.6Z" style="fill:#fff"/><path d="M330.6,53.8v13h-4.4V54.7c0-2.1-1-2.9-2.4-2.9a3.84,3.84,0,0,0-3.2,1.8V66.8h-4.4V54.7c0-2.1-1-2.9-2.4-2.9a3.84,3.84,0,0,0-3.2,1.8V66.8h-4.4V48.3h4.2v2h.1a5.54,5.54,0,0,1,4.8-2.5c2.3,0,3.9.9,4.7,2.7h.1a5.89,5.89,0,0,1,5.3-2.7C328.8,47.9,330.6,50,330.6,53.8Z" style="fill:#fff"/><path d="M359.2,53.8v13h-4.4V54.7c0-2.1-1-2.9-2.4-2.9a3.84,3.84,0,0,0-3.2,1.8V66.8h-4.4V54.7c0-2.1-1-2.9-2.4-2.9a3.84,3.84,0,0,0-3.2,1.8V66.8h-4.4V48.3H339v2h.1a5.54,5.54,0,0,1,4.8-2.5c2.3,0,3.9.9,4.7,2.7h.1a5.89,5.89,0,0,1,5.3-2.7C357.3,47.9,359.2,50,359.2,53.8Z" style="fill:#fff"/><path d="M363.1,61.2V48.3h4.4v12c0,2.1.9,3.1,2.5,3.1a4.29,4.29,0,0,0,3.4-1.9V48.3h4.4V63.2a5.47,5.47,0,0,0,.8,2.9v.1l-4.4,1a6.15,6.15,0,0,1-.7-2.3h-.1a6.21,6.21,0,0,1-5,2.4C365.1,67.3,363.1,65.2,363.1,61.2Z" style="fill:#fff"/><path d="M382.2,48.3h4.2v2h.1a6,6,0,0,1,5-2.5c3.5,0,5.4,2.2,5.4,6.1V66.7h-4.4V54.9c0-2.2-1-3.1-2.5-3.1a4.62,4.62,0,0,0-3.5,1.9V66.8h-4.4l.1-18.5Z" style="fill:#fff"/><path d="M400.6,44.1a2.7,2.7,0,1,1,2.7,2.8A2.65,2.65,0,0,1,400.6,44.1Zm.5,4.2h4.4V66.8h-4.4Z" style="fill:#fff"/><path d="M409.2,57.6c0-6.3,2.9-9.7,7.9-9.7a12.4,12.4,0,0,1,6.2,1.8l-1.5,3.4a7.17,7.17,0,0,0-4-1.4c-2.7,0-4.2,2-4.2,5.9s1.5,5.9,4.2,5.9a7.17,7.17,0,0,0,4-1.4l1.5,3.4a12.4,12.4,0,0,1-6.2,1.8C412.1,67.3,409.2,63.8,409.2,57.6Z" style="fill:#fff"/><path d="M441.1,66.1h0l-4.4,1.1a6.12,6.12,0,0,1-.7-2.5h-.1a5.49,5.49,0,0,1-4.9,2.5c-3.3,0-5.4-2.3-5.4-5.8,0-4,2.7-6.4,6.9-6.4a11.42,11.42,0,0,1,3.3.5v-.7c0-2.1-1.2-3.1-3.5-3.1a7.38,7.38,0,0,0-4.5,1.5l-1.6-3.5a12.34,12.34,0,0,1,6.9-1.9c4.7,0,7.1,2.4,7.1,6.7v8.7A6.6,6.6,0,0,0,441.1,66.1Zm-5.2-4.3V59a7.51,7.51,0,0,0-2.6-.5c-2.1,0-3.3.9-3.3,2.7a2.13,2.13,0,0,0,2.4,2.3A4.71,4.71,0,0,0,435.9,61.8Z" style="fill:#fff"/><path d="M445.7,61.8V52H443V48.3h2.7v-4h4.4v4h3.4V52h-3.4v8.7c0,1.8.7,2.5,2.1,2.5a5.85,5.85,0,0,0,1.3-.2v3.8a8.84,8.84,0,0,1-2.7.4C447.5,67.2,445.7,65.4,445.7,61.8Z" style="fill:#fff"/><path d="M456.2,44.1a2.7,2.7,0,1,1,2.7,2.8A2.65,2.65,0,0,1,456.2,44.1Zm.4,4.2H461V66.8h-4.4Z" style="fill:#fff"/><path d="M464.8,57.6c0-6.3,2.9-9.7,8.1-9.7s8.1,3.5,8.1,9.7-2.9,9.7-8.1,9.7S464.8,63.8,464.8,57.6Zm11.7,0c0-3.8-1.3-5.9-3.7-5.9s-3.7,2.1-3.7,5.9,1.3,5.9,3.7,5.9S476.5,61.4,476.5,57.6Z" style="fill:#fff"/><path d="M484.6,48.3h4.2v2h.1a6,6,0,0,1,5-2.5c3.5,0,5.4,2.2,5.4,6.1V66.7h-4.4V54.9c0-2.2-1-3.1-2.5-3.1a4.62,4.62,0,0,0-3.5,1.9V66.8h-4.4l.1-18.5Z" style="fill:#fff"/><path d="M168.8,75.1h4.7V99.5h-4.7Z" style="fill:#fff"/><path d="M178.3,81h4.2v2h.1a6,6,0,0,1,5-2.5c3.5,0,5.4,2.2,5.4,6.1V99.4h-4.4V87.6c0-2.2-1-3.1-2.5-3.1a4.62,4.62,0,0,0-3.5,1.9V99.5h-4.4l.1-18.5Z" style="fill:#fff"/><path d="M197.2,81h4.2v2h.1a6,6,0,0,1,5-2.5c3.5,0,5.4,2.2,5.4,6.1V99.4h-4.4V87.6c0-2.2-1-3.1-2.5-3.1a4.62,4.62,0,0,0-3.5,1.9V99.5h-4.4l.1-18.5Z" style="fill:#fff"/><path d="M215.5,90.3c0-6.3,2.9-9.7,8.1-9.7s8.1,3.5,8.1,9.7-2.9,9.7-8.1,9.7S215.5,96.5,215.5,90.3Zm11.8,0c0-3.8-1.3-5.9-3.7-5.9s-3.7,2.1-3.7,5.9,1.3,5.9,3.7,5.9S227.3,94,227.3,90.3Z" style="fill:#fff"/><path d="M233.3,81h4.6l3.3,12.6h.2L244.6,81h4.5l-5.4,18.5h-5Z" style="fill:#fff"/><path d="M266.3,98.8h0l-4.4,1.1a6.12,6.12,0,0,1-.7-2.5h-.1a5.49,5.49,0,0,1-4.9,2.5c-3.3,0-5.4-2.3-5.4-5.8,0-4,2.7-6.4,6.9-6.4a11.42,11.42,0,0,1,3.3.5v-.7c0-2.1-1.2-3.1-3.5-3.1a7.38,7.38,0,0,0-4.5,1.5l-1.6-3.5a12.34,12.34,0,0,1,6.9-1.9c4.7,0,7.1,2.4,7.1,6.7V96A6.6,6.6,0,0,0,266.3,98.8Zm-5.2-4.4V91.7a7.51,7.51,0,0,0-2.6-.5c-2.1,0-3.3.9-3.3,2.7a2.13,2.13,0,0,0,2.4,2.3A4.5,4.5,0,0,0,261.1,94.4Z" style="fill:#fff"/><path d="M270.8,94.5V84.7h-2.7V81h2.7V77h4.4v4h3.4v3.7h-3.4v8.7c0,1.8.7,2.5,2.1,2.5a5.85,5.85,0,0,0,1.3-.2v3.8a8.84,8.84,0,0,1-2.7.4C272.6,99.8,270.8,98.1,270.8,94.5Z" style="fill:#fff"/><path d="M281.4,76.7a2.65,2.65,0,0,1,2.7-2.8,2.71,2.71,0,0,1,2.7,2.8,2.7,2.7,0,1,1-5.4,0Zm.5,4.3h4.4V99.5h-4.4Z" style="fill:#fff"/><path d="M289.9,90.3c0-6.3,2.9-9.7,8.1-9.7s8.1,3.5,8.1,9.7-2.9,9.7-8.1,9.7S289.9,96.5,289.9,90.3Zm11.8,0c0-3.8-1.3-5.9-3.7-5.9s-3.7,2.1-3.7,5.9,1.3,5.9,3.7,5.9S301.7,94,301.7,90.3Z" style="fill:#fff"/><path d="M309.8,81H314v2h.1a6,6,0,0,1,5-2.5c3.5,0,5.4,2.2,5.4,6.1V99.4h-4.4V87.6c0-2.2-1-3.1-2.5-3.1a4.62,4.62,0,0,0-3.5,1.9V99.5h-4.4l.1-18.5Z" style="fill:#fff"/><path d="M168.4,124.4l.9-2.1a6,6,0,0,0,3.2,1c1.4,0,2-.6,2-1.3s-.7-1.3-2.6-2.2c-2.3-1.1-3.1-2.4-3.1-4.1,0-2.2,1.3-3.5,3.9-3.5a6.83,6.83,0,0,1,4,1.3l-.9,2.1a5.19,5.19,0,0,0-2.9-1.1c-1.1,0-1.6.5-1.6,1.1s.6,1.3,2.3,2c2.7,1.3,3.5,2.6,3.5,4.3,0,2.4-1.5,3.8-4.5,3.8A6.39,6.39,0,0,1,168.4,124.4Z" style="fill:#fff"/><path d="M188.7,123.8h0l-1.5,2a6.22,6.22,0,0,1-4.1-5.2h-1.2v4.8h-2.6v-13h4.1c2.9,0,4.4,1.5,4.4,4.1a3.54,3.54,0,0,1-2.5,3.7A4.49,4.49,0,0,0,188.7,123.8Zm-5.6-5.2c1.4,0,2.2-.7,2.2-2s-.8-2-2.2-2h-1.3v3.9l1.3.1Z" style="fill:#fff"/><path d="M190.5,112.5H193v13h-2.5Z" style="fill:#fff"/><path d="M196.1,112.5h2.8l3.7,8.4h.1l-.1-3.9v-4.5H205v13h-2.8l-3.7-8.4h-.1l.1,3.9v4.5h-2.4Z" style="fill:#fff"/><path d="M216.7,125.4h0l-2.7.1-.5-2.2H210l-.5,2.2h-2.7v-.1l3.5-13h3Zm-3.7-4.2-.5-2-.7-3.5h-.1l-.7,3.5-.5,2Z" style="fill:#fff"/><path d="M218.7,112.5h2.5v3.9l-.1,1.7h.1l3.7-5.5h2.8v.1l-4.3,6.3v.1l4.5,6.6v.1H225l-3.9-5.7H221l.1,1.7v4h-2.5l.1-13.3Z" style="fill:#fff"/><path d="M229.7,112.5h2.5v5.3h4v-5.3h2.5v13h-2.5V120h-4v5.5h-2.5Z" style="fill:#fff"/><path d="M250.6,125.4h0l-2.7.1-.5-2.2h-3.5l-.5,2.2h-2.7v-.1l3.5-13h3Zm-3.7-4.2-.5-2-.7-3.5h-.1l-.7,3.5-.5,2Z" style="fill:#fff"/><path d="M261.9,123.8h0l-1.5,2a6.22,6.22,0,0,1-4.1-5.2h-1.2v4.8h-2.6v-13h4.1c2.9,0,4.4,1.5,4.4,4.1a3.54,3.54,0,0,1-2.5,3.7A4.49,4.49,0,0,0,261.9,123.8Zm-5.6-5.2c1.4,0,2.2-.7,2.2-2s-.8-2-2.2-2H255v3.9l1.3.1Z" style="fill:#fff"/><path d="M263.7,112.5h2.5v13h-2.5Z" style="fill:#fff"/><path d="M269.3,112.5h2.8l3.7,8.4h.1l-.1-3.9v-4.5h2.4v13h-2.8l-3.7-8.4h-.1l.1,3.9v4.5h-2.4Z" style="fill:#fff"/><path d="M280,112.5h0l2.7-.1.9,5.1.6,3.6h.1l.6-3.6,1-5.1h2.5l1,5.1.7,3.6h.1l.6-3.6.9-5.1h2.7v.1l-2.7,13h-3l-.9-4.1-.6-3.5h.1l-.6,3.5-.9,4.1h-3Z" style="fill:#fff"/><path d="M296.3,112.5h2.5v13h-2.5Z" style="fill:#fff"/><path d="M311.3,123.8h0l-1.5,2a6.22,6.22,0,0,1-4.1-5.2h-1.3v4.8h-2.5v-13H306c2.9,0,4.4,1.5,4.4,4.1a3.54,3.54,0,0,1-2.5,3.7A4.49,4.49,0,0,0,311.3,123.8Zm-5.5-5.2c1.4,0,2.2-.7,2.2-2s-.8-2-2.2-2h-1.3v3.9l1.3.1Z" style="fill:#fff"/><path d="M312.4,119c0-4.3,1.9-6.7,5.1-6.7s5.1,2.4,5.1,6.7-1.9,6.7-5.1,6.7S312.4,123.3,312.4,119Zm7.8,0c0-2.9-.9-4.5-2.6-4.5s-2.6,1.6-2.6,4.5.9,4.5,2.6,4.5S320.2,121.9,320.2,119Z" style="fill:#fff"/><path d="M332.3,114.7h-3.1v10.8h-2.5V114.7h-3.1v-2.2h8.7v2.2Z" style="fill:#fff"/><path d="M338.4,121.3v-8.8h2.5V121c0,1.6.7,2.5,2,2.5s2-.9,2-2.5v-8.5h2.5v8.8c0,2.9-1.6,4.5-4.5,4.5S338.4,124.1,338.4,121.3Z" style="fill:#fff"/><path d="M350.4,112.5h2.8l3.7,8.4h.1l-.1-3.9v-4.5h2.4v13h-2.8l-3.7-8.4h-.1l.1,3.9v4.5h-2.4Z" style="fill:#fff"/><path d="M362.3,112.5h2.5v13h-2.5Z" style="fill:#fff"/><path d="M366.7,112.5h0l2.7-.1,1.5,6.3.7,3.5h.1l.7-3.5,1.5-6.3h2.7v.1l-3.5,13h-3Z" style="fill:#fff"/><path d="M378.6,112.5h7.5v2.2h-4.9v3.1h4.4V120h-4.4v3.3h5.1v2.2h-7.6l-.1-13Z" style="fill:#fff"/><path d="M398,123.8h0l-1.5,2a6.22,6.22,0,0,1-4.1-5.2h-1.2v4.8h-2.5v-13h4.1c2.9,0,4.4,1.5,4.4,4.1a3.54,3.54,0,0,1-2.5,3.7A4.25,4.25,0,0,0,398,123.8Zm-5.6-5.2c1.4,0,2.2-.7,2.2-2s-.8-2-2.2-2h-1.3v3.9l1.3.1Z" style="fill:#fff"/><path d="M398.8,124.4l.9-2.1a6,6,0,0,0,3.2,1c1.4,0,2-.6,2-1.3s-.7-1.3-2.6-2.2c-2.3-1.1-3.1-2.4-3.1-4.1,0-2.2,1.3-3.5,3.9-3.5a6.83,6.83,0,0,1,4,1.3l-.9,2.1a5.19,5.19,0,0,0-2.9-1.1c-1.1,0-1.6.5-1.6,1.1s.6,1.3,2.3,2c2.7,1.3,3.5,2.6,3.5,4.3,0,2.4-1.5,3.8-4.5,3.8A6.39,6.39,0,0,1,398.8,124.4Z" style="fill:#fff"/><path d="M409.8,112.5h2.5v13h-2.5Z" style="fill:#fff"/><path d="M423,114.7h-3v10.8h-2.5V114.7h-3.1v-2.2h8.7l-.1,2.2Z" style="fill:#fff"/><path d="M427.6,120.3l-3.7-7.8v-.1h2.7l1.3,3.1.9,2.3h.1l.9-2.3,1.3-3.1h2.7v.1l-3.7,7.8v5.2h-2.5v-5.2Z" style="fill:#fff"/></svg>